<svg id="visual" viewBox="0 0 960 540" width="960" height="540" xmlns="http://www.w3.org/2000/svg" 
xmlns:xlink="http://www.w3.org/1999/xlink" version="1.1"><rect x="0" y="0" width="960" height="540" fill="white"></rect><defs><linearGradient id="grad1_0" x1="43.8%" y1="100%" x2="100%" y2="0%"><stop offset="14.444444444444446%" stop-color="#001220" stop-opacity="1"></stop><stop offset="85.55555555555554%" stop-color="#001220" stop-opacity="1"></stop></linearGradient></defs><defs><linearGradient id="grad2_0" x1="0%" y1="100%" x2="56.3%" y2="0%"><stop offset="14.444444444444446%" stop-color="#001220" stop-opacity="1"></stop><stop offset="85.55555555555554%" stop-color="#001220" stop-opacity="1"></stop></linearGradient></defs><g transform="translate(960, 540)"><path d="M-297 0C-291.4 -37.2 -285.8 -74.4 -273.5 -113.3C-261.1 -152.2 -242 -192.7 -210 -210C-178 -227.3 -133.2 -221.3 -96.1 -231.9C-58.9 -242.5 -29.5 -269.8 0 -297L0 0Z" fill="#F3DE8A"></path></g><g transform="translate(0, 0)"><path d="M297 0C297.4 42.9 297.9 85.8 274.4 113.7C250.9 141.5 203.5 154.4 171.1 171.1C138.7 187.8 121.3 208.4 95.3 230C69.3 251.7 34.6 274.3 0 297L0 0Z" fill="#F3DE8A"></path></g></svg>